<?xml version="1.0" encoding="utf-8"?>
<!-- Generator: Adobe Illustrator 24.1.2, SVG Export Plug-In . SVG Version: 6.00 Build 0)  -->
<svg version="1.1" id="Layer_1" xmlns="http://www.w3.org/2000/svg" xmlns:xlink="http://www.w3.org/1999/xlink" x="0px" y="0px"
	 viewBox="0 0 500 500" style="enable-background:new 0 0 500 500;" xml:space="preserve">
<style type="text/css">
	.st0{fill:#2BA01A;}
</style>
<g>
	<path class="st0" d="M6.88,249.61C6.04,116.96,114.34,11.04,240.5,6.75c141.67-4.81,252.97,107.49,253.33,242.01
		C494.21,388.39,382.04,493.51,251.7,494C115.33,494.51,7.22,386.27,6.88,249.61z M203.82,188.31c0,4.75,0,8.81,0,12.86
		c0,56.36-0.01,112.72-0.01,169.08c0,25.41,0,25.08,25.84,25.26c8.24,0.06,10.59-2.4,10.56-10.59
		c-0.28-74.34-0.3-148.68,0.01-223.02c0.04-8.63-3.16-10.56-10.96-10.37c-17.97,0.43-35.96-0.29-53.92,0.23
		c-40.38,1.18-71.37,19.24-88.99,55.6c-17.79,36.71-13.47,72.8,12.36,104.69c21.57,26.63,50.08,38.55,85.5,35.02
		c0-7.78-0.61-14.71,0.14-21.48c1.12-10.07-1.83-13.7-12.77-13.81c-26.54-0.26-47.93-17.24-56.34-42.63
		c-8.05-24.29-0.27-50.49,19.61-67.17C155.11,184.98,178.94,187.41,203.82,188.31z M315.86,187.84c5.15,0,8.57-0.08,11.97,0.01
		c26.32,0.7,49.51,18.58,57.62,44.41c7.64,24.32-2.29,52.52-22.92,68.06c-16.54,12.46-35.34,11.74-54.4,12
		c-9.26,0.13-12.37-2.31-12.29-12.12c0.46-60.48,0.23-120.97,0.23-181.46c0-4.1,0-8.19,0-14.15c-8.47,0-16,0.55-23.41-0.14
		c-9.75-0.91-13.03,2.25-12.97,12.54c0.44,72.93,0.23,145.86,0.23,218.79c0,3.66,0,7.32,0,11.47c27.71,0,54.23,2.62,80.03-0.56
		c48.78-6.03,85.29-47.7,83.64-99.67c-1.65-51.73-42.7-92.8-92.68-95.28c-15.03-0.75-15.03-0.75-15.04,13.93
		C315.86,172.52,315.86,179.36,315.86,187.84z"/>
</g>
</svg>
