<?xml version="1.0" encoding="utf-8"?>
<!-- Generator: Adobe Illustrator 24.1.2, SVG Export Plug-In . SVG Version: 6.00 Build 0)  -->
<svg version="1.1" xmlns="http://www.w3.org/2000/svg" xmlns:xlink="http://www.w3.org/1999/xlink" x="0px" y="0px"
	 viewBox="0 0 342.21 99" style="enable-background:new 0 0 342.21 99;" xml:space="preserve">
<style type="text/css">
	.st0{display:none;}
	.st1{display:inline;}
	.st2{fill:#2BA01A;}
	.st3{fill:#D32C1F;}
	.st4{fill:#01A6A4;}
	.st5{fill:#8F9197;}
</style>
<g id="Layer_1" class="st0">
	<g class="st1">
		<path class="st2" d="M224.72,20.78c-0.31-49.01,39.7-88.14,86.31-89.72c52.34-1.78,93.46,39.71,93.59,89.41
			c0.14,51.58-41.3,90.42-89.45,90.6C264.79,111.25,224.85,71.26,224.72,20.78z M297.48-1.87c0,1.75,0,3.25,0,4.75
			c0,20.82,0,41.64,0,62.46c0,9.39,0,9.27,9.55,9.33c3.04,0.02,3.91-0.89,3.9-3.91c-0.1-27.46-0.11-54.93,0-82.39
			c0.01-3.19-1.17-3.9-4.05-3.83c-6.64,0.16-13.29-0.11-19.92,0.09c-14.92,0.44-26.37,7.11-32.88,20.54
			c-6.57,13.56-4.98,26.89,4.57,38.67c7.97,9.84,18.5,14.24,31.59,12.94c0-2.87-0.23-5.43,0.05-7.94c0.41-3.72-0.68-5.06-4.72-5.1
			c-9.8-0.1-17.71-6.37-20.81-15.75c-2.97-8.97-0.1-18.65,7.24-24.81C279.48-3.1,288.28-2.2,297.48-1.87z M338.87-2.04
			c1.9,0,3.16-0.03,4.42,0c9.72,0.26,18.29,6.87,21.29,16.41c2.82,8.99-0.84,19.4-8.47,25.14c-6.11,4.6-13.06,4.34-20.1,4.43
			c-3.42,0.05-4.57-0.85-4.54-4.48c0.17-22.34,0.09-44.69,0.09-67.04c0-1.51,0-3.03,0-5.23c-3.13,0-5.91,0.2-8.65-0.05
			c-3.6-0.33-4.82,0.83-4.79,4.63c0.16,26.94,0.09,53.88,0.09,80.83c0,1.35,0,2.7,0,4.24c10.24,0,20.03,0.97,29.56-0.21
			c18.02-2.23,31.51-17.62,30.9-36.82c-0.61-19.11-15.78-34.28-34.24-35.2c-5.55-0.28-5.55-0.28-5.56,5.15
			C338.87-7.7,338.87-5.18,338.87-2.04z"/>
	</g>
	<g class="st1">
		<path class="st3" d="M113.71,102.45c59.74,0.07,108.09,48.38,108.07,107.99c-0.02,59.75-48.65,108.02-108.69,107.87
			C53.39,318.17,5.2,269.76,5.33,210.07C5.46,150.44,53.86,102.38,113.71,102.45z M189.2,173.66c-0.4-0.83-0.73-1.58-1.12-2.31
			c-3.27-6.16-7.38-11.71-11.79-17.11c-2.52-3.09-4.17-2.79-7.1-0.45c-31.85,25.37-57.69,55.8-77.2,91.51
			c-2.25,4.12-3.66,4.12-7.08,1.46c-9.53-7.41-19.16-14.71-28.14-22.79c-2.79-2.51-3.79-1.92-4.98,1.21
			c-2.7,7.1-5.57,14.14-8.46,21.16c-0.94,2.28-0.68,3.83,1.38,5.51c17.06,13.92,34.7,27.02,53.29,38.84
			c3.41,2.17,4.24,0.94,5.42-2.08c4.75-12.18,10.53-23.87,17.09-35.19c16.94-29.23,38.77-54.26,64.98-75.54
			C186.93,176.71,189.04,175.97,189.2,173.66z"/>
	</g>
	<g class="st1">
		<path class="st4" d="M384.32,180.3c-57,0-103.2,46.21-103.2,103.2c0,56.99,46.2,103.19,103.2,103.19
			c56.99,0,103.19-46.2,103.19-103.19C487.51,226.51,441.31,180.3,384.32,180.3z M427.33,325.22c-6.52,7.35-14.61,12.75-22.68,18.15
			c-6.23,4.17-12.51,8.24-18.75,12.38c-0.93,0.62-1.66,1.07-2.82,0.27c-10.63-7.34-21.88-13.76-32.2-21.55
			c-5.95-4.5-11.34-9.54-14.79-16.32c-2.7-5.32-3.72-11.02-3.71-16.93c0.08-10.38,3.17-20.04,7.44-29.37
			c7.9-17.27,18.94-32.49,31.1-46.95c3.87-4.59,8.02-8.94,12.01-13.43c0.91-1.02,1.53-1.36,2.68-0.13
			c15.61,16.61,29.75,34.32,40.34,54.6c5.31,10.17,9.44,20.78,10.2,32.42C436.82,308.52,434.14,317.53,427.33,325.22z"/>
		<g>
			<path class="st4" d="M382.48,233.4c-0.15,0.28-0.25,0.61-0.46,0.85c-7.78,9.16-15.06,18.71-21.35,28.96
				c-5.91,9.63-11.08,19.58-13.51,30.75c-2.35,10.81,0.49,19.56,9.65,26.19c5.27,3.82,10.68,7.4,16.26,10.73
				c3.35,2,6.57,4.19,9.93,6.71V233.76C382.82,233.64,382.65,233.52,382.48,233.4z"/>
			<path class="st4" d="M383,233.76v103.83c-3.36-2.52-6.58-4.71-9.93-6.71c-5.58-3.33-10.99-6.91-16.26-10.73
				c-9.16-6.63-12-15.38-9.65-26.19c2.43-11.17,7.6-21.12,13.51-30.75c6.29-10.25,13.57-19.8,21.35-28.96
				c0.21-0.24,0.31-0.57,0.46-0.85C382.65,233.52,382.82,233.64,383,233.76z"/>
		</g>
	</g>
</g>
<g id="Layer_2">
	<g>
		<path class="st5" d="M34.6,29.58c0,22.52,0,44.92,0,67.32c5.66,0,11.16,0,16.77,0c0-1.06,0-1.92,0-2.77
			c0-11.42-0.01-22.84,0.01-34.27c0.01-4.57,1.1-8.86,3.91-12.53c3.82-4.98,9.05-6.62,15.03-5.39c5.62,1.15,7.85,5.47,8.85,10.63
			c0.21,1.07,0.43,2.16,0.44,3.24c0.11,12.75,0.17,25.5,0.25,38.25c0.01,0.92,0,1.84,0,3.04c5.03,0,9.79-0.1,14.55,0.05
			c2.03,0.06,2.46-0.67,2.44-2.55c-0.07-12.83,0.01-25.66-0.08-38.49c-0.02-2.96-0.27-5.95-0.82-8.86
			c-1.99-10.5-8.95-17.55-18.85-19.37c-10.64-1.96-20.13,2.18-25.76,11.27c-0.16,0.25-0.07,0.66-0.1,0.99
			c-0.29-0.21-0.59-0.41-0.88-0.62c0-3.32,0-6.63,0-9.95C44.98,29.58,39.84,29.58,34.6,29.58z M217.39,29.55c0,1.08,0,1.92,0,2.77
			c0,11.42,0,22.85,0,34.27c0,5.18-1.29,9.96-4.92,13.79c-4.09,4.31-9.22,5.54-14.85,3.94c-5.2-1.47-7.17-5.74-8.01-10.59
			c-0.41-2.37-0.54-4.82-0.56-7.23c-0.06-11.42-0.02-22.85-0.02-34.27c0-0.84,0-1.67,0-2.55c-5.8,0-11.3,0-16.85,0
			c-0.04,0.67-0.09,1.13-0.09,1.59c0,13.54-0.03,27.08,0.03,40.61c0.01,2.26,0.16,4.55,0.6,6.76c1.9,9.4,6.7,16.58,16.35,19.29
			c9.71,2.72,18.47,0.86,25.61-6.65c1.26-1.32,2.21-2.94,3.66-4.91c0,3.87,0,7.23,0,10.61c5.46,0,10.6,0,15.82,0
			c0-22.54,0-44.94,0-67.42C228.58,29.55,223.19,29.55,217.39,29.55z M316.52,96.97c0-17.62,0-35.01,0-52.69c6.38,0,12.52,0,18.65,0
			c0-5.1,0-9.9,0-14.75c-18.27,0-36.38,0-54.57,0c0,4.98,0,9.79,0,14.87c6.3,0,12.45,0,18.87,0c0,17.66,0,35.05,0,52.57
			C305.19,96.97,310.64,96.97,316.52,96.97z M160.12,44.39c0-5.26,0-10.05,0-14.86c-18.32,0-36.44,0-54.57,0c0,4.99,0,9.81,0,14.89
			c6.29,0,12.44,0,18.85,0c0,17.66,0,35.06,0,52.55c5.71,0,11.15,0,16.88,0c0-17.53,0-34.92,0-52.58
			C147.71,44.39,153.86,44.39,160.12,44.39z M0.32,29.58c0,22.52,0,44.92,0,67.39c5.62,0,11.06,0,16.6,0c0-22.53,0-44.94,0-67.39
			C11.32,29.58,5.87,29.58,0.32,29.58z M268.46,29.67c-5.67,0-11.16,0-16.63,0c0,22.55,0,44.87,0,67.3c5.61,0,11.05,0,16.63,0
			C268.46,74.51,268.46,52.18,268.46,29.67z M143.04,10.29c-0.03-5.58-4.59-10.14-10.17-10.18c-5.66-0.03-10.29,4.63-10.25,10.32
			c0.04,5.61,4.58,10.15,10.16,10.18C138.44,20.64,143.08,15.97,143.04,10.29z M297.7,10.35c0,5.67,4.69,10.34,10.32,10.26
			c5.59-0.07,10.1-4.64,10.11-10.24c0.01-5.59-4.5-10.18-10.09-10.26C302.4,0.03,297.7,4.68,297.7,10.35z M337.28,87.87
			c-2.83,0-4.99,2.24-4.93,5.1c0.06,2.75,2.17,4.78,4.98,4.77c2.75-0.01,4.94-2.14,4.99-4.82
			C342.36,90.16,340.07,87.86,337.28,87.87z M337.32,97.02c-2.25,0.01-4.19-1.89-4.22-4.14c-0.02-2.27,1.84-4.13,4.16-4.15
			c2.31-0.02,4.17,1.8,4.18,4.09C341.45,95.1,339.58,97.01,337.32,97.02z M339.18,91.09c-0.96-0.69-2.22-0.98-3.56-1.5v5.91h0.43
			c0.18-0.69,0.36-1.37,0.57-2.19c0.89,0.93,1.59,1.67,2.3,2.42c0.16-0.15,0.31-0.3,0.47-0.45c-0.33-0.61-0.65-1.21-0.77-1.43
			C338.88,92.65,339.45,91.28,339.18,91.09z"/>
		<path class="st5" d="M34.6,29.58c5.24,0,10.38,0,15.78,0c0,3.32,0,6.63,0,9.95c0.29,0.21,0.59,0.41,0.88,0.62
			c0.03-0.33-0.06-0.74,0.1-0.99c5.63-9.09,15.12-13.23,25.76-11.27c9.9,1.83,16.86,8.88,18.85,19.37c0.55,2.9,0.8,5.9,0.82,8.86
			c0.09,12.83,0,25.66,0.08,38.49c0.01,1.88-0.41,2.61-2.44,2.55C89.67,97,84.91,97.1,79.87,97.1c0-1.2,0-2.12,0-3.04
			c-0.08-12.75-0.14-25.5-0.25-38.25c-0.01-1.08-0.23-2.17-0.44-3.24c-1-5.16-3.24-9.48-8.85-10.63c-5.99-1.23-11.21,0.4-15.03,5.39
			c-2.81,3.67-3.91,7.96-3.91,12.53c-0.02,11.42-0.01,22.84-0.01,34.27c0,0.86,0,1.71,0,2.77c-5.61,0-11.11,0-16.77,0
			C34.6,74.5,34.6,52.1,34.6,29.58z"/>
		<path class="st5" d="M217.39,29.55c5.8,0,11.19,0,16.76,0c0,22.48,0,44.88,0,67.42c-5.22,0-10.36,0-15.82,0c0-3.37,0-6.73,0-10.61
			c-1.45,1.97-2.4,3.59-3.66,4.91c-7.13,7.51-15.9,9.38-25.61,6.65c-9.65-2.71-14.45-9.9-16.35-19.29c-0.45-2.21-0.59-4.5-0.6-6.76
			c-0.05-13.54-0.03-27.08-0.03-40.61c0-0.46,0.05-0.93,0.09-1.59c5.55,0,11.05,0,16.85,0c0,0.88,0,1.72,0,2.55
			c0,11.42-0.03,22.85,0.02,34.27c0.01,2.41,0.14,4.86,0.56,7.23c0.84,4.85,2.82,9.12,8.01,10.59c5.63,1.6,10.76,0.37,14.85-3.94
			c3.63-3.83,4.92-8.61,4.92-13.79c0-11.42,0-22.85,0-34.27C217.39,31.47,217.39,30.63,217.39,29.55z"/>
		<path class="st5" d="M316.52,96.97c-5.89,0-11.33,0-17.05,0c0-17.52,0-34.91,0-52.57c-6.42,0-12.57,0-18.87,0
			c0-5.08,0-9.89,0-14.87c18.2,0,36.31,0,54.57,0c0,4.85,0,9.66,0,14.75c-6.14,0-12.27,0-18.65,0
			C316.52,61.96,316.52,79.35,316.52,96.97z"/>
		<path class="st5" d="M160.12,44.39c-6.26,0-12.41,0-18.84,0c0,17.66,0,35.05,0,52.58c-5.73,0-11.17,0-16.88,0
			c0-17.49,0-34.88,0-52.55c-6.41,0-12.56,0-18.85,0c0-5.08,0-9.9,0-14.89c18.13,0,36.24,0,54.57,0
			C160.12,34.34,160.12,39.13,160.12,44.39z"/>
		<path class="st5" d="M0.32,29.58c5.54,0,10.99,0,16.6,0c0,22.45,0,44.85,0,67.39c-5.54,0-10.99,0-16.6,0
			C0.32,74.5,0.32,52.11,0.32,29.58z"/>
		<path class="st5" d="M268.46,29.67c0,22.51,0,44.84,0,67.3c-5.58,0-11.03,0-16.63,0c0-22.43,0-44.76,0-67.3
			C257.3,29.67,262.79,29.67,268.46,29.67z"/>
		<path class="st5" d="M143.04,10.29c0.03,5.68-4.61,10.35-10.26,10.33c-5.58-0.03-10.12-4.57-10.16-10.18
			c-0.04-5.69,4.59-10.35,10.25-10.32C138.45,0.14,143.01,4.71,143.04,10.29z"/>
		<path class="st5" d="M297.7,10.35c0-5.67,4.7-10.32,10.35-10.24c5.58,0.08,10.09,4.67,10.09,10.26
			c-0.01,5.6-4.52,10.16-10.11,10.24C302.38,20.69,297.69,16.02,297.7,10.35z"/>
		<path class="st5" d="M337.28,87.87c-2.83,0-4.99,2.24-4.93,5.1c0.06,2.75,2.17,4.78,4.98,4.77c2.75-0.01,4.94-2.14,4.99-4.82
			C342.36,90.16,340.07,87.86,337.28,87.87z M337.32,97.02c-2.25,0.01-4.19-1.89-4.22-4.14c-0.02-2.27,1.84-4.13,4.16-4.15
			c2.31-0.02,4.17,1.8,4.18,4.09C341.45,95.1,339.58,97.01,337.32,97.02z"/>
		<path class="st5" d="M339.39,95.28c-0.16,0.15-0.31,0.3-0.47,0.45c-0.71-0.75-1.41-1.49-2.3-2.42c-0.21,0.82-0.39,1.5-0.57,2.19
			h-0.43v-5.91c1.34,0.52,2.6,0.81,3.56,1.5c0.27,0.19-0.3,1.56-0.56,2.76C338.74,94.07,339.06,94.67,339.39,95.28z"/>
	</g>
</g>
</svg>
