<?xml version="1.0" encoding="utf-8"?>
<!-- Generator: Adobe Illustrator 24.1.2, SVG Export Plug-In . SVG Version: 6.00 Build 0)  -->
<svg version="1.1" xmlns="http://www.w3.org/2000/svg" xmlns:xlink="http://www.w3.org/1999/xlink" x="0px" y="0px"
	 viewBox="0 0 138 176" style="enable-background:new 0 0 138 176;" xml:space="preserve">
<style type="text/css">
	.st0{display:none;}
	.st1{display:inline;}
	.st2{fill:#2BA01A;}
	.st3{fill:#D32C1F;}
	.st4{fill:#01A6A4;}
	.st5{fill:#FFFFFF;}
</style>
<g id="Layer_1" class="st0">
	<g class="st1">
		<path class="st2" d="M335.72,138.78c-0.31-49.01,39.7-88.14,86.31-89.72c52.34-1.78,93.46,39.71,93.59,89.41
			c0.14,51.58-41.3,90.42-89.45,90.6C375.79,229.25,335.85,189.26,335.72,138.78z M408.48,116.13c0,1.75,0,3.25,0,4.75
			c0,20.82,0,41.64,0,62.46c0,9.39,0,9.27,9.55,9.33c3.04,0.02,3.91-0.89,3.9-3.91c-0.1-27.46-0.11-54.93,0-82.39
			c0.01-3.19-1.17-3.9-4.05-3.83c-6.64,0.16-13.29-0.11-19.92,0.09c-14.92,0.44-26.37,7.11-32.88,20.54
			c-6.57,13.56-4.98,26.89,4.57,38.67c7.97,9.84,18.5,14.24,31.59,12.94c0-2.87-0.23-5.43,0.05-7.94c0.41-3.72-0.68-5.06-4.72-5.1
			c-9.8-0.1-17.71-6.37-20.81-15.75c-2.97-8.97-0.1-18.65,7.24-24.81C390.48,114.9,399.28,115.8,408.48,116.13z M449.87,115.96
			c1.9,0,3.16-0.03,4.42,0c9.72,0.26,18.29,6.87,21.29,16.41c2.82,8.99-0.84,19.4-8.47,25.14c-6.11,4.6-13.06,4.34-20.1,4.43
			c-3.42,0.05-4.57-0.85-4.54-4.48c0.17-22.34,0.09-44.69,0.09-67.04c0-1.51,0-3.03,0-5.23c-3.13,0-5.91,0.2-8.65-0.05
			c-3.6-0.33-4.82,0.83-4.79,4.63c0.16,26.94,0.09,53.88,0.09,80.83c0,1.35,0,2.7,0,4.24c10.24,0,20.03,0.97,29.56-0.21
			c18.02-2.23,31.51-17.62,30.9-36.82c-0.61-19.11-15.78-34.28-34.24-35.2c-5.55-0.28-5.55-0.28-5.56,5.15
			C449.87,110.3,449.87,112.82,449.87,115.96z"/>
	</g>
	<g class="st1">
		<path class="st3" d="M224.71,220.45c59.74,0.07,108.09,48.38,108.07,107.99c-0.02,59.75-48.65,108.02-108.69,107.87
			c-59.69-0.14-107.89-48.56-107.76-108.25C116.46,268.44,164.86,220.38,224.71,220.45z M300.2,291.66
			c-0.4-0.83-0.73-1.58-1.12-2.31c-3.27-6.16-7.38-11.71-11.79-17.11c-2.52-3.09-4.17-2.79-7.1-0.45
			c-31.85,25.37-57.69,55.8-77.2,91.51c-2.25,4.12-3.66,4.12-7.08,1.46c-9.53-7.41-19.16-14.71-28.14-22.79
			c-2.79-2.51-3.79-1.92-4.98,1.21c-2.7,7.1-5.57,14.14-8.46,21.16c-0.94,2.28-0.68,3.83,1.38,5.51
			c17.06,13.92,34.7,27.02,53.29,38.84c3.41,2.17,4.24,0.94,5.42-2.08c4.75-12.18,10.53-23.87,17.09-35.19
			c16.94-29.23,38.77-54.26,64.98-75.54C297.93,294.71,300.04,293.97,300.2,291.66z"/>
	</g>
	<g class="st1">
		<path class="st4" d="M495.32,298.3c-57,0-103.2,46.21-103.2,103.2c0,56.99,46.2,103.19,103.2,103.19
			c56.99,0,103.19-46.2,103.19-103.19C598.51,344.51,552.31,298.3,495.32,298.3z M538.33,443.22c-6.52,7.35-14.61,12.75-22.68,18.15
			c-6.23,4.17-12.51,8.24-18.75,12.38c-0.93,0.62-1.66,1.07-2.82,0.27c-10.63-7.34-21.88-13.76-32.2-21.55
			c-5.95-4.5-11.34-9.54-14.79-16.32c-2.7-5.32-3.72-11.02-3.71-16.93c0.08-10.38,3.17-20.04,7.44-29.37
			c7.9-17.27,18.94-32.49,31.1-46.95c3.87-4.59,8.02-8.94,12.01-13.43c0.91-1.02,1.53-1.36,2.68-0.13
			c15.61,16.61,29.75,34.32,40.34,54.6c5.31,10.17,9.44,20.78,10.2,32.42C547.82,426.52,545.14,435.53,538.33,443.22z"/>
		<g>
			<path class="st4" d="M493.48,351.4c-0.15,0.28-0.25,0.61-0.46,0.85c-7.78,9.16-15.06,18.71-21.35,28.96
				c-5.91,9.63-11.08,19.58-13.51,30.75c-2.35,10.81,0.49,19.56,9.65,26.19c5.27,3.82,10.68,7.4,16.26,10.73
				c3.35,2,6.57,4.19,9.93,6.71V351.76C493.82,351.64,493.65,351.52,493.48,351.4z"/>
			<path class="st4" d="M494,351.76v103.83c-3.36-2.52-6.58-4.71-9.93-6.71c-5.58-3.33-10.99-6.91-16.26-10.73
				c-9.16-6.63-12-15.38-9.65-26.19c2.43-11.17,7.6-21.12,13.51-30.75c6.29-10.25,13.57-19.8,21.35-28.96
				c0.21-0.24,0.31-0.57,0.46-0.85C493.65,351.52,493.82,351.64,494,351.76z"/>
		</g>
	</g>
</g>
<g id="Layer_2">
	<path class="st5" d="M137.54,83.77c-0.01-3.51-0.93-6.78-3.39-9.47c-1.75-1.91-3.89-2.95-6.51-2.93h-3.1v-1.98
		c-0.09-6.12,0.06-12.26-0.31-18.36c-0.71-11.53-4.93-21.79-12.21-30.72c-7.56-9.29-17.14-15.62-28.84-18.39
		C68.65-1.51,54.73,0.24,41.89,8.09c-13.65,8.34-22.03,20.57-25.34,36.16c-0.88,4.16-0.99,8.51-1.16,12.78
		c-0.2,4.68-0.05,9.38-0.05,14.33h-1.73C7.47,71.4,3.42,74.93,2.59,81.04c-0.17,1.25-0.26,2.51-0.26,3.76
		c-0.01,25.99-0.01,51.97-0.01,77.95c0,3.38,0.57,6.58,2.57,9.44c1.41,2.01,3.41,3.13,5.62,3.98h118.86
		c5.95-2.09,8.13-6.77,8.15-12.56C137.6,137,137.57,110.38,137.54,83.77z M82.83,120.77c-1.79,2.68-2.04,5.24-2.01,8.14
		c0.04,6.01,0.02,12.01,0,18.02c-0.01,4.22-1.99,6.18-6.23,6.19c-3.14,0-6.29,0.01-9.44,0c-4.08-0.02-6.08-2.03-6.1-6.15
		c-0.01-3.6,0-7.21,0-10.81c0-3.72,0.05-7.44-0.04-11.16c-0.02-0.82-0.37-1.79-0.89-2.43c-6.45-8.01-3.03-19.93,6.73-23.3
		c5.71-1.97,12.9-0.16,16.52,4.16C85.63,108.54,86.52,115.27,82.83,120.77z M101.91,71.28h-63.7c-0.09-0.18-0.19-0.28-0.19-0.38
		c0.1-6.74-0.26-13.53,0.41-20.22c1.23-12.4,11.1-23.31,23.24-26.54c12.54-3.33,25.78,1.22,33.51,11.46
		c4.39,5.8,6.66,12.32,6.72,19.6C101.94,60.51,101.91,65.82,101.91,71.28z"/>
</g>
</svg>
