<?xml version="1.0" encoding="utf-8"?>
<!-- Generator: Adobe Illustrator 24.1.2, SVG Export Plug-In . SVG Version: 6.00 Build 0)  -->
<svg version="1.1" id="Layer_1" xmlns="http://www.w3.org/2000/svg" xmlns:xlink="http://www.w3.org/1999/xlink" x="0px" y="0px"
	 viewBox="0 0 500 500" style="enable-background:new 0 0 500 500;" xml:space="preserve">
<style type="text/css">
	.st0{fill:#01A6A4;}
</style>
<g>
	<path class="st0" d="M250.01,6C115.24,6,6,115.26,6,250.01C6,384.76,115.24,494,250.01,494C384.76,494,494,384.76,494,250.01
		C494,115.26,384.76,6,250.01,6z M351.71,348.66c-15.42,17.38-34.54,30.15-53.63,42.91c-14.73,9.86-29.58,19.48-44.33,29.27
		c-2.2,1.47-3.92,2.53-6.67,0.64c-25.13-17.36-51.73-32.53-76.14-50.95c-14.07-10.64-26.81-22.56-34.97-38.59
		c-6.38-12.58-8.8-26.06-8.77-40.03c0.19-24.54,7.5-47.38,17.59-69.44c18.68-40.83,44.78-76.82,73.53-111.01
		c9.15-10.85,18.96-21.14,28.4-31.75c2.15-2.41,3.62-3.22,6.34-0.31c36.91,39.27,70.34,81.15,95.38,129.1
		c12.56,24.05,22.32,49.13,24.12,76.66C374.15,309.17,367.81,330.47,351.71,348.66z"/>
	<g>
		<path class="st0" d="M245.66,131.55c-0.35,0.66-0.59,1.44-1.09,2.01c-18.4,21.66-35.61,44.24-50.48,68.47
			c-13.97,22.77-26.2,46.3-31.94,72.71c-5.56,25.56,1.16,46.25,22.82,61.93c12.46,9.03,25.25,17.5,38.45,25.37
			c7.92,4.73,15.53,9.91,23.48,15.87V132.4C246.47,132.12,246.06,131.84,245.66,131.55z"/>
		<path class="st0" d="M246.89,132.4v245.5c-7.94-5.96-15.56-11.14-23.48-15.87c-13.19-7.87-25.99-16.34-38.45-25.37
			c-21.66-15.68-28.37-36.37-22.82-61.93c5.75-26.41,17.97-49.94,31.94-72.71c14.87-24.24,32.09-46.82,50.48-68.47
			c0.5-0.57,0.73-1.35,1.09-2.01C246.06,131.84,246.47,132.12,246.89,132.4z"/>
	</g>
</g>
</svg>
