<?xml version="1.0" encoding="utf-8"?>
<!-- Generator: Adobe Illustrator 24.1.2, SVG Export Plug-In . SVG Version: 6.00 Build 0)  -->
<svg version="1.1" id="Layer_1" xmlns="http://www.w3.org/2000/svg" xmlns:xlink="http://www.w3.org/1999/xlink" x="0px" y="0px"
	 viewBox="0 0 500 500" style="enable-background:new 0 0 500 500;" xml:space="preserve">
<style type="text/css">
	.st0{fill:#D32C1F;}
</style>
<g>
	<path class="st0" d="M250.34,9.65C383.38,9.81,491.04,117.39,491,250.13c-0.04,133.05-108.35,240.54-242.05,240.22
		C116.03,490.03,8.71,382.22,9,249.29C9.3,116.51,117.07,9.49,250.34,9.65z M418.45,168.22c-0.89-1.84-1.64-3.53-2.5-5.15
		c-7.28-13.71-16.44-26.08-26.26-38.1c-5.62-6.88-9.28-6.22-15.82-1.01c-70.93,56.5-128.47,124.26-171.91,203.77
		c-5.01,9.16-8.15,9.18-15.77,3.26c-21.23-16.51-42.67-32.76-62.66-50.75c-6.2-5.58-8.44-4.27-11.09,2.7
		c-6.01,15.81-12.4,31.48-18.84,47.12c-2.09,5.08-1.51,8.53,3.08,12.27c37.99,31,77.27,60.16,118.68,86.5
		c7.6,4.84,9.43,2.09,12.06-4.64c10.58-27.12,23.45-53.16,38.05-78.35c37.71-65.09,86.33-120.83,144.71-168.21
		C413.39,175.01,418.1,173.36,418.45,168.22z"/>
</g>
</svg>
